<svg width="540" height="235" viewBox="0 0 540 235" fill="none" xmlns="http://www.w3.org/2000/svg">
<g opacity="0.27">
<path d="M112.694 102.347C112.694 132.914 87.914 157.694 57.3468 157.694C26.7796 157.694 2 132.914 2 102.347C2 71.7796 26.7796 47 57.3468 47C87.914 47 112.694 71.7796 112.694 102.347Z" stroke="#E3BA49" stroke-width="4"/>
<path d="M293.994 181.997C293.994 205.192 275.192 223.994 251.997 223.994C228.803 223.994 210 205.192 210 181.997C210 158.803 228.803 140 251.997 140C275.192 140 293.994 158.803 293.994 181.997Z" stroke="#E3BA49" stroke-width="4"/>
<path d="M462.783 46.2534C462.783 69.4479 443.98 88.2507 420.785 88.2507C397.591 88.2507 378.788 69.4479 378.788 46.2534C378.788 23.059 397.591 4.25623 420.785 4.25623C443.98 4.25623 462.783 23.059 462.783 46.2534Z" stroke="#E3BA49" stroke-width="4"/>
<circle cx="257.582" cy="69.9443" r="24.6992" stroke="#E3BA49" stroke-width="4"/>
<path d="M497.994 190.997C497.994 214.192 479.192 232.994 455.997 232.994C432.803 232.994 414 214.192 414 190.997C414 167.803 432.803 149 455.997 149C479.192 149 497.994 167.803 497.994 190.997Z" stroke="#E3BA49" stroke-width="4"/>
<line x1="43.6128" y1="91.6351" x2="135.744" y2="91.6351" stroke="#E3BA49" stroke-width="4"/>
<line x1="138" y1="-8.74228e-08" x2="138" y2="94" stroke="#E3BA49" stroke-width="4"/>
<rect x="18" y="172" width="211.474" height="53.9109" stroke="#E3BA49" stroke-width="4"/>
<rect x="190.39" y="2" width="211.474" height="53.9109" stroke="#E3BA49" stroke-width="4"/>
<rect x="268" y="104" width="163" height="76" stroke="#E3BA49" stroke-width="4"/>
<rect x="446" y="45" width="91.1393" height="51.6546" stroke="#E3BA49" stroke-width="4"/>
</g>
</svg>
